# xmcd CD database file
#
# Track frame offsets:
#	150
#	16312
#	31385
#	42539
#	54174
#	78150
#	102237
#	119565
#	144110
#	161549
#	177918
#	194188
#	214218
#	231500
#	251751
#	265686
#	289655
#	320074
#
# Disc length: 4473 seconds
#
# Revision: 0
# Processed by: cddbd v1.5.2PL0 Copyright (c) Steve Scherf et al.
# Submitted via: CDex 1.70beta1
#
DISCID=07117712
DTITLE=Harry Gold and his Pieces of Eight - Bouncing Back
DYEAR=1900
DGENRE=Jazz
TTITLE0=Bouncing Back
TTITLE1=Ostrich Walk
TTITLE2=Look At 'Em Doing It
TTITLE3=Little Rock Getaway
TTITLE4=Temptation Blues
TTITLE5=Panama
TTITLE6=I Wanna Be Like You
TTITLE7=Since My Best Gal Turned Me Down
TTITLE8=Meander In The Minor
TTITLE9=Honky Tonk Train Blues
TTITLE10=Birth Of The Blues
TTITLE11=There'll Be Some Changes Made
TTITLE12=Dixieland Shuffle
TTITLE13=Tiger Rag
TTITLE14=On The Alamo (Previously Unissued)
TTITLE15=Muskrat Ramble (Previously Unissued)
TTITLE16=Apex Blues (Previously Unissued)
TTITLE17=Milneburg Joys (Previously Unissued)
EXTD=
EXTT0=
EXTT1=
EXTT2=
EXTT3=
EXTT4=
EXTT5=
EXTT6=
EXTT7=
EXTT8=
EXTT9=
EXTT10=
EXTT11=
EXTT12=
EXTT13=
EXTT14=
EXTT15=
EXTT16=
EXTT17=
PLAYORDER=
